<svg width="24" height="24" viewBox="0 0 24 24" fill="none" xmlns="http://www.w3.org/2000/svg">
<path d="M12.846 1.54528L15.6602 7.74978C15.7954 8.04785 16.0775 8.25279 16.4028 8.28929L23.1733 9.04846C23.9666 9.1374 24.2857 10.1195 23.6962 10.6578L18.665 15.2515C18.4232 15.4722 18.3155 15.8038 18.3813 16.1244L19.7515 22.7981C19.912 23.5801 19.0767 24.1871 18.3826 23.7927L12.4589 20.4273C12.1743 20.2656 11.8257 20.2656 11.5411 20.4273L5.61745 23.7927C4.92333 24.1871 4.08791 23.5801 4.24849 22.7981L5.61867 16.1244C5.68447 15.8038 5.57676 15.4722 5.33504 15.2515L0.303773 10.6578C-0.285783 10.1195 0.033313 9.1374 0.826679 9.04846L7.59717 8.28929C7.92242 8.25284 8.2045 8.0479 8.33973 7.74978L11.1539 1.54528C11.4837 0.818239 12.5163 0.818239 12.846 1.54528Z" fill="#FFDD00"/>
<path d="M12.4589 20.4274L18.3826 23.7928C19.0767 24.1871 19.9121 23.5802 19.7516 22.7982L18.3814 16.1245C18.3155 15.8039 18.4233 15.4723 18.665 15.2516L23.6962 10.6578C24.2858 10.1195 23.9667 9.13746 23.1733 9.04852L16.4028 8.2894C16.0776 8.2529 15.7955 8.04796 15.6603 7.74989L12.846 1.54529C12.6812 1.18175 12.3405 1 11.9999 1V20.3061C12.1583 20.3061 12.3166 20.3465 12.4589 20.4274Z" fill="#FFB900"/>
<path d="M12.3843 8.12687L13.6626 10.9453C13.7241 11.0807 13.8522 11.1738 13.9999 11.1903L17.0754 11.5351C17.4358 11.5755 17.5807 12.0216 17.313 12.2662L15.0275 14.3529C14.9177 14.4531 14.8688 14.6038 14.8987 14.7494L15.5211 17.7809C15.594 18.1362 15.2145 18.4119 14.8992 18.2327L12.2084 16.704C12.0791 16.6306 11.9207 16.6306 11.7914 16.704L9.10061 18.2327C8.78533 18.4118 8.40584 18.1362 8.47874 17.7809L9.10113 14.7494C9.13105 14.6038 9.08208 14.4531 8.9723 14.3529L6.68689 12.2662C6.41906 12.0216 6.56403 11.5755 6.92442 11.5351L9.99991 11.1903C10.1476 11.1738 10.2758 11.0807 10.3372 10.9453L11.6156 8.12687C11.7654 7.79658 12.2345 7.79658 12.3843 8.12687Z" fill="#FFEE8C"/>
<path d="M12.2085 16.704L14.8993 18.2327C15.2146 18.4118 15.5941 18.1361 15.5212 17.7809L14.8988 14.7494C14.8689 14.6038 14.9178 14.4531 15.0276 14.3529L17.313 12.2662C17.5808 12.0217 17.4359 11.5755 17.0755 11.5351L14 11.1903C13.8523 11.1737 13.7241 11.0806 13.6627 10.9452L12.3843 8.12685C12.3095 7.9617 12.1547 7.87915 12 7.87915V16.6489C12.0719 16.6489 12.1438 16.6672 12.2085 16.704Z" fill="#FFDD00"/>
<path d="M15.3715 19.1458C15.2517 19.1458 15.1315 19.1153 15.023 19.0537L12.0001 17.3362L8.97717 19.0537C8.73644 19.1905 8.43795 19.1738 8.21391 19.011C7.98988 18.8483 7.88179 18.5695 7.93748 18.2983L8.63672 14.8926L6.06919 12.5484C5.86472 12.3617 5.78833 12.0726 5.87394 11.8093C5.95945 11.546 6.19115 11.357 6.46636 11.3262L9.92139 10.9388L11.3576 7.77251C11.4719 7.52039 11.7232 7.3584 12.0001 7.3584C12.277 7.3584 12.5282 7.52035 12.6426 7.77251L14.0787 10.9388L17.5337 11.3262C17.8089 11.357 18.0406 11.546 18.1262 11.8093C18.2117 12.0726 18.1353 12.3617 17.9309 12.5484L15.3634 14.8926L16.0626 18.2983C16.1183 18.5696 16.0102 18.8483 15.7862 19.011C15.6632 19.1004 15.5176 19.1458 15.3715 19.1458ZM12.0001 15.8192C12.1204 15.8192 12.2406 15.8499 12.3487 15.9113L14.3676 17.0583L13.9006 14.7837C13.8506 14.5402 13.9324 14.2884 14.116 14.1208L15.8307 12.5551L13.5231 12.2964C13.2761 12.2687 13.0619 12.1131 12.9592 11.8867L12.0001 9.77199L11.0409 11.8867C10.9382 12.113 10.724 12.2687 10.477 12.2964L8.16946 12.5551L9.88423 14.1208C10.0678 14.2884 10.1496 14.5402 10.0996 14.7837L9.63258 17.0583L11.6515 15.9113C11.7597 15.8499 11.8799 15.8192 12.0001 15.8192Z" fill="#FFF7D2"/>
<path d="M15.0229 19.0537C15.1314 19.1154 15.2515 19.1458 15.3714 19.1458C15.5175 19.1458 15.6631 19.1005 15.7861 19.0111C16.0101 18.8483 16.1182 18.5696 16.0625 18.2984L15.3633 14.8927L17.9308 12.5484C18.1353 12.3617 18.2117 12.0727 18.1261 11.8093C18.0405 11.546 17.8089 11.3571 17.5337 11.3262L14.0786 10.9388L12.6425 7.77251C12.5282 7.52039 12.2769 7.3584 12 7.3584V9.77203V9.77199L12.9592 11.8867C13.0619 12.113 13.2761 12.2687 13.523 12.2964L15.8307 12.5551L14.1159 14.1208C13.9324 14.2884 13.8505 14.5402 13.9005 14.7837L14.3675 17.0583L12.3486 15.9113C12.2405 15.8499 12.1203 15.8192 12 15.8192V17.3362L15.0229 19.0537Z" fill="#FFEE8C"/>
</svg>
